<svg width="280" height="97" viewBox="0 0 280 97" fill="none" xmlns="http://www.w3.org/2000/svg">
<path d="M22.5379 51.5956C21.5946 51.0214 20.6189 50.5084 19.6155 50.0613C18.7646 49.6754 17.8167 49.3177 16.7624 48.9789C15.7081 48.6448 14.6769 48.4753 13.6735 48.4753C12.855 48.4753 12.203 48.6024 11.7175 48.8612C11.232 49.1154 10.9869 49.5484 10.9869 50.1555C10.9869 50.6025 11.1302 50.9696 11.4123 51.2614C11.6944 51.5485 12.1059 51.812 12.6377 52.0521C13.1741 52.2921 13.8261 52.5227 14.5937 52.7486C15.3659 52.9745 16.2352 53.2427 17.2109 53.5628C18.7507 54.0428 20.1426 54.5699 21.3865 55.1488C22.6304 55.7229 23.6893 56.4053 24.5679 57.1866C25.4465 57.9725 26.1262 58.9232 26.5979 60.0433C27.0695 61.1633 27.3053 62.5234 27.3053 64.1236C27.3053 66.1708 26.9354 67.8932 26.1956 69.2816C25.4557 70.6746 24.48 71.7853 23.2731 72.6183C22.0616 73.4513 20.6929 74.049 19.1715 74.4208C17.6456 74.7879 16.115 74.9714 14.5752 74.9714C13.3498 74.9714 12.092 74.8773 10.8019 74.6843C9.51179 74.4914 8.23091 74.2231 6.95928 73.8702C5.68765 73.5172 4.45764 73.1031 3.27849 72.623C2.09934 72.143 1.00806 71.5971 0 70.99L3.96286 62.7823C5.0634 63.4882 6.21017 64.1094 7.40782 64.6554C8.41587 65.1354 9.5534 65.5684 10.8297 65.9496C12.1013 66.3355 13.4007 66.5237 14.7232 66.5237C15.7312 66.5237 16.4294 66.3873 16.8225 66.1143C17.2155 65.8413 17.4098 65.4837 17.4098 65.0366C17.4098 64.5565 17.2109 64.1471 16.8225 63.8129C16.4294 63.4788 15.8884 63.1823 15.1948 62.9235C14.5012 62.6693 13.7105 62.4105 12.8134 62.1564C11.9163 61.9022 10.9638 61.5963 9.96032 61.2433C8.48061 60.7304 7.20898 60.1797 6.14081 59.5868C5.07264 58.9938 4.18944 58.3255 3.50045 57.5725C2.80683 56.8195 2.29818 55.9629 1.96987 55.0029C1.64156 54.0428 1.47509 52.9368 1.47509 51.6897C1.47509 49.8025 1.81265 48.1365 2.48777 46.6964C3.16289 45.2563 4.08309 44.0562 5.24836 43.0961C6.41363 42.136 7.74075 41.4066 9.23434 40.9124C10.7279 40.4182 12.3094 40.1688 13.974 40.1688C15.1994 40.1688 16.3971 40.2865 17.5577 40.5312C18.723 40.7712 19.8467 41.0771 20.9287 41.4442C22.0154 41.8113 23.028 42.2113 23.9714 42.6443C24.9147 43.0773 25.7655 43.4867 26.5192 43.8679L22.5379 51.5956Z" fill="#52ADD7"/>
<path d="M60.9804 40.4561V74.5386H51.7831V61.1917H40.5558V74.5386H31.3584V40.4561H40.5558V53.0311H51.7831V40.4561H60.9804Z" fill="#52ADD7"/>
<path d="M66.7363 74.5386V40.4561H75.9337V53.417L86.1206 40.4561H96.4971L84.3264 55.7231L97.3433 74.5386H86.7772L78.4769 62.0106L75.9291 64.6979V74.5386H66.7363Z" fill="#52ADD7"/>
<path d="M110.883 75.0187C108.715 75.0187 106.782 74.6752 105.08 73.9881C103.383 73.3009 101.959 72.3644 100.812 71.1784C99.6654 69.9925 98.7914 68.6324 98.1949 67.0981C97.5984 65.5639 97.2979 63.945 97.2979 62.2507C97.2979 60.4247 97.5892 58.6975 98.1718 57.0644C98.7545 55.4314 99.6192 54.0101 100.766 52.7912C101.913 51.577 103.328 50.6075 105.011 49.8874C106.694 49.1674 108.65 48.8097 110.883 48.8097C113.085 48.8097 115.036 49.1674 116.733 49.8874C118.43 50.6075 119.854 51.5675 121.001 52.7676C122.148 53.9677 123.013 55.3608 123.595 56.9421C124.178 58.5281 124.469 60.18 124.469 61.9119C124.469 62.3919 124.446 62.8813 124.4 63.3755C124.354 63.8697 124.298 64.312 124.233 64.6932H106.828C106.921 66.0392 107.411 67.004 108.289 67.597C109.168 68.19 110.13 68.4865 111.166 68.4865C112.141 68.4865 113.061 68.2606 113.926 67.8135C114.791 67.3664 115.364 66.7405 115.646 65.9404L123.239 68.1476C122.231 70.1619 120.682 71.8138 118.592 73.0939C116.502 74.3787 113.931 75.0187 110.883 75.0187ZM114.842 59.2246C114.684 58.0104 114.245 57.0503 113.519 56.3444C112.798 55.6384 111.868 55.2902 110.736 55.2902C109.603 55.2902 108.678 55.6432 107.952 56.3444C107.226 57.0503 106.787 58.0104 106.629 59.2246H114.842Z" fill="#52ADD7"/>
<path d="M139.603 75.019C137.434 75.019 135.502 74.6754 133.8 73.9883C132.103 73.3012 130.679 72.3647 129.532 71.1787C128.385 69.9927 127.511 68.6326 126.915 67.0984C126.318 65.5641 126.018 63.9452 126.018 62.251C126.018 60.4249 126.309 58.6977 126.892 57.0647C127.474 55.4316 128.339 54.0103 129.486 52.7914C130.632 51.5772 132.047 50.6077 133.731 49.8877C135.414 49.1676 137.37 48.8099 139.603 48.8099C141.804 48.8099 143.756 49.1676 145.453 49.8877C147.15 50.6077 148.574 51.5678 149.721 52.7679C150.868 53.968 151.732 55.361 152.315 56.9423C152.898 58.5283 153.189 60.1802 153.189 61.9121C153.189 62.3921 153.166 62.8816 153.119 63.3757C153.073 63.8699 153.018 64.3123 152.953 64.6935H135.548C135.64 66.0395 136.13 67.0043 137.009 67.5972C137.888 68.1902 138.849 68.4867 139.885 68.4867C140.861 68.4867 141.781 68.2608 142.646 67.8137C143.511 67.3666 144.084 66.7407 144.366 65.9406L151.959 68.1479C150.951 70.1621 149.402 71.814 147.312 73.0941C145.226 74.3789 142.655 75.019 139.603 75.019ZM143.566 59.2248C143.409 58.0106 142.97 57.0506 142.244 56.3446C141.518 55.6387 140.593 55.2904 139.46 55.2904C138.327 55.2904 137.402 55.6434 136.676 56.3446C135.95 57.0506 135.511 58.0106 135.354 59.2248H143.566Z" fill="#52ADD7"/>
<path d="M172.804 75.0191C171.01 75.0191 169.456 74.6614 168.134 73.9414C166.811 73.2213 165.789 72.1718 165.068 70.7976V92.884H156.106V49.2901H163.889V53.0833C164.767 51.7091 165.854 50.6502 167.144 49.916C168.434 49.1819 170.02 48.8101 171.907 48.8101C173.539 48.8101 175.065 49.1395 176.48 49.7937C177.895 50.4478 179.107 51.3561 180.11 52.5045C181.114 53.6575 181.909 55.0317 182.492 56.6318C183.074 58.232 183.366 59.9591 183.366 61.8181C183.366 63.7053 183.097 65.4607 182.566 67.075C182.029 68.6892 181.294 70.0917 180.351 71.2776C179.407 72.4636 178.288 73.3813 177.003 74.0355C175.713 74.6896 174.312 75.0191 172.804 75.0191ZM169.692 67.3385C170.353 67.3385 170.959 67.1926 171.509 66.9055C172.06 66.6185 172.531 66.2184 172.924 65.7055C173.317 65.1925 173.632 64.5995 173.868 63.9312C174.103 63.2629 174.224 62.5381 174.224 61.771C174.224 60.1709 173.775 58.8908 172.878 57.9307C171.981 56.9707 170.793 56.4906 169.318 56.4906C167.648 56.4906 166.233 57.3566 165.073 59.0838V63.4512C165.512 64.5712 166.159 65.4984 167.005 66.2373C167.852 66.9714 168.749 67.3385 169.692 67.3385Z" fill="#52ADD7"/>
<path d="M198.841 75.0188C196.672 75.0188 194.739 74.6753 193.037 73.9882C191.34 73.3011 189.916 72.3645 188.769 71.1786C187.622 69.9926 186.748 68.6325 186.152 67.0983C185.555 65.564 185.255 63.9451 185.255 62.2508C185.255 60.4248 185.546 58.6976 186.129 57.0646C186.711 55.4315 187.576 54.0102 188.723 52.7913C189.87 51.5771 191.285 50.6076 192.968 49.8875C194.651 49.1675 196.607 48.8098 198.841 48.8098C201.042 48.8098 202.993 49.1675 204.69 49.8875C206.387 50.6076 207.811 51.5677 208.958 52.7678C210.105 53.9679 210.97 55.3609 211.552 56.9422C212.135 58.5282 212.426 60.1801 212.426 61.912C212.426 62.392 212.403 62.8815 212.357 63.3756C212.311 63.8698 212.255 64.3122 212.19 64.6934H194.785C194.878 66.0393 195.368 67.0041 196.246 67.5971C197.125 68.1901 198.087 68.4866 199.123 68.4866C200.098 68.4866 201.018 68.2607 201.883 67.8136C202.748 67.3665 203.321 66.7406 203.603 65.9405L211.196 68.1478C210.188 70.162 208.639 71.8139 206.549 73.094C204.463 74.3788 201.892 75.0188 198.841 75.0188ZM202.803 59.2247C202.646 58.0105 202.207 57.0504 201.481 56.3445C200.755 55.6386 199.83 55.2903 198.697 55.2903C197.564 55.2903 196.639 55.6433 195.913 56.3445C195.187 57.0504 194.748 58.0105 194.591 59.2247H202.803Z" fill="#52ADD7"/>
<path d="M232.19 57.0646C230.46 57.0646 228.888 57.2576 227.473 57.6388C226.058 58.0247 225.004 58.6647 224.315 59.5589V74.5342H215.354V49.2852H223.561V54.0856C224.44 52.3913 225.536 51.083 226.84 50.1747C228.144 49.2617 229.55 48.8052 231.062 48.8052C231.658 48.8052 232.037 48.824 232.195 48.8522V57.0646H232.19Z" fill="#52ADD7"/>
<path d="M1.38589 90.0649C1.29803 91.0438 1.95465 91.938 3.08756 91.938C4.1696 91.938 4.73836 91.1332 4.73836 90.2766C4.73836 89.1048 3.80892 88.7707 2.91647 88.4553C1.93615 88.1212 0.456441 87.5988 0.456441 85.7775C0.456441 84.2715 1.47375 83.0808 3.17542 83.0808C4.72449 83.0808 5.78804 84.2197 5.77416 85.6881H4.50253C4.52103 84.8315 3.93377 84.2527 3.14305 84.2527C2.2506 84.2527 1.73269 84.8645 1.73269 85.6692C1.73269 86.7705 2.69451 87.1235 3.57309 87.4011C4.69212 87.7682 6.01462 88.2577 6.01462 90.0602C6.01462 91.8109 4.91408 93.1051 2.98583 93.1051C1.02521 93.1051 0.114258 91.6509 0.114258 90.0602H1.38589V90.0649Z" fill="white"/>
<path d="M8.45654 88.5589C8.60914 90.4649 10.0565 91.938 12.0356 91.938C13.5153 91.938 14.7361 91.0814 15.3233 89.7684H16.6505C15.8921 91.8344 14.1719 93.1145 12.0402 93.1145C9.27038 93.1145 7.13867 90.9779 7.13867 88.1071C7.13867 85.7445 8.84034 83.0808 12.0402 83.0808C15.6008 83.0808 16.8909 86.0928 16.8724 88.5589H8.45654ZM15.4944 87.387C15.1338 85.4433 13.6725 84.2527 12.0356 84.2527C10.2276 84.2527 8.76636 85.5657 8.45654 87.387H15.4944Z" fill="white"/>
<path d="M18.6729 79.9277H19.9445V92.884H18.6729V79.9277Z" fill="white"/>
<path d="M22.7151 84.4787H21.2539V83.3068H22.7151V83.1139C22.7151 81.2408 23.9544 79.9277 26.0676 79.9277H26.3266V81.0996H26.0676C25.6884 81.0996 23.9868 81.1325 23.9868 83.1139V83.3068H26.3266V84.4787H23.9868V92.884H22.7151V84.4787Z" fill="white"/>
<path d="M31.5195 79.9277H32.7912V84.6904C33.3923 83.7963 34.3726 83.0809 35.8338 83.0809C37.9655 83.0809 39.9447 84.4269 39.9447 87.8436V92.884H38.673V87.8436C38.673 87.1424 38.6222 84.2528 35.6812 84.2528C34.3726 84.2528 32.7912 84.9352 32.7912 87.6318V92.884H31.5195V79.9277Z" fill="white"/>
<path d="M51.4924 88.1023C51.4924 90.9543 49.3422 93.1097 46.5724 93.1097C43.8026 93.1097 41.6523 90.9543 41.6523 88.1023C41.6523 85.2503 43.7841 83.076 46.5724 83.076C49.3607 83.076 51.4924 85.2503 51.4924 88.1023ZM42.924 88.1023C42.924 90.2719 44.4546 91.9379 46.5724 91.9379C48.6902 91.9379 50.2208 90.2766 50.2208 88.1023C50.2208 85.9327 48.6902 84.2526 46.5724 84.2526C44.4546 84.2526 42.924 85.9327 42.924 88.1023Z" fill="white"/>
<path d="M53.8478 90.0649C53.7599 91.0438 54.4166 91.938 55.5495 91.938C56.6315 91.938 57.2003 91.1332 57.2003 90.2766C57.2003 89.1048 56.2708 88.7707 55.3784 88.4553C54.3981 88.1212 52.9184 87.5988 52.9184 85.7775C52.9184 84.2715 53.931 83.0808 55.6373 83.0808C57.1864 83.0808 58.25 84.2197 58.2361 85.6881H56.9645C56.9829 84.8315 56.3957 84.2527 55.605 84.2527C54.7079 84.2527 54.1946 84.8645 54.1946 85.6692C54.1946 86.7705 55.1564 87.1235 56.035 87.4011C57.154 87.7682 58.4765 88.2577 58.4765 90.0602C58.4765 91.8109 57.376 93.1051 55.4477 93.1051C53.4871 93.1051 52.5762 91.6509 52.5762 90.0602H53.8478V90.0649Z" fill="white"/>
<path d="M61.0358 84.4787H59.0752V83.3068H61.0358V79.9277H62.3074V83.3068H64.49V84.4787H62.3074V92.884H61.0358V84.4787Z" fill="white"/>
<path d="M66.7463 88.5589C66.8989 90.4649 68.3463 91.938 70.3254 91.938C71.8051 91.938 73.0259 91.0814 73.6131 89.7684H74.9356C74.1773 91.8344 72.4571 93.1145 70.3254 93.1145C67.5555 93.1145 65.4238 90.9779 65.4238 88.1071C65.4238 85.7445 67.1255 83.0808 70.3254 83.0808C73.8859 83.0808 75.1761 86.0928 75.1576 88.5589H66.7463ZM73.7796 87.387C73.4189 85.4433 71.9577 84.2527 70.3208 84.2527C68.5127 84.2527 67.0515 85.5657 66.7417 87.387H73.7796Z" fill="white"/>
<path d="M86.5795 92.884H85.3773V91.1333H85.3403C84.4987 92.3946 83.19 93.1099 81.6595 93.1099C78.8573 93.1099 76.6377 90.9733 76.6377 88.0319C76.6377 85.7917 78.2885 83.0762 81.6271 83.0762C82.3993 83.0762 84.138 83.1986 85.2755 84.9681H85.3079V79.9277H86.5795V92.884ZM77.9093 88.1401C77.9093 90.3473 79.648 91.938 81.6595 91.938C83.7403 91.938 85.3773 90.2909 85.3773 88.1542C85.3773 85.947 83.7958 84.2481 81.6271 84.2481C79.5786 84.2528 77.9093 85.9141 77.9093 88.1401Z" fill="white"/>
<path d="M92.751 79.9277H94.0226V89.279L98.4617 83.3068H99.9738L96.3254 88.1025L100.214 92.884H98.582L95.5208 89.1002L94.0226 91.0627V92.884H92.751V79.9277Z" fill="white"/>
<path d="M102.348 88.5589C102.505 90.4649 103.948 91.938 105.927 91.938C107.407 91.938 108.628 91.0814 109.215 89.7684H110.542C109.784 91.8344 108.064 93.1145 105.932 93.1145C103.162 93.1145 101.03 90.9779 101.03 88.1071C101.03 85.7445 102.732 83.0808 105.932 83.0808C109.492 83.0808 110.783 86.0928 110.764 88.5589H102.348ZM109.386 87.387C109.025 85.4433 107.564 84.2527 105.927 84.2527C104.119 84.2527 102.658 85.5657 102.348 87.387H109.386Z" fill="white"/>
<path d="M113.53 88.5589C113.687 90.4649 115.13 91.938 117.109 91.938C118.589 91.938 119.809 91.0814 120.397 89.7684H121.724C120.965 91.8344 119.245 93.1145 117.113 93.1145C114.344 93.1145 112.212 90.9779 112.212 88.1071C112.212 85.7445 113.914 83.0808 117.113 83.0808C120.674 83.0808 121.964 86.0928 121.946 88.5589H113.53ZM120.568 87.387C120.207 85.4433 118.746 84.2527 117.109 84.2527C115.301 84.2527 113.84 85.5657 113.53 87.387H120.568Z" fill="white"/>
<path d="M123.749 83.3067H124.951V84.9539H124.984C126.154 83.2926 127.804 83.0808 128.664 83.0808C131.966 83.0808 133.672 85.7069 133.672 88.14C133.672 90.992 131.522 93.1098 128.632 93.1098C126.343 93.1098 125.381 91.6556 125.053 91.0955H125.021V96.2442H123.749V83.3067ZM124.951 88.1588C124.951 90.2766 126.482 91.9427 128.632 91.9427C130.713 91.9427 132.401 90.2955 132.401 88.1259C132.401 85.9563 130.768 84.2574 128.669 84.2574C126.482 84.2527 124.951 86.0034 124.951 88.1588Z" fill="white"/>
<path d="M136.442 88.5589C136.594 90.4649 138.042 91.938 140.021 91.938C141.501 91.938 142.721 91.0814 143.309 89.7684H144.636C143.877 91.8344 142.157 93.1145 140.026 93.1145C137.256 93.1145 135.124 90.9779 135.124 88.1071C135.124 85.7445 136.826 83.0808 140.026 83.0808C143.586 83.0808 144.876 86.0928 144.858 88.5589H136.442ZM143.475 87.387C143.114 85.4433 141.653 84.2527 140.016 84.2527C138.208 84.2527 136.747 85.5657 136.437 87.387H143.475Z" fill="white"/>
<path d="M146.657 83.3065H147.859V84.6902H147.892C148.41 83.6595 149.441 83.0618 150.592 83.0995V84.3937C149.39 84.4643 147.924 85.269 147.924 87.2127V92.8837H146.652V83.3065H146.657Z" fill="white"/>
<path d="M273.157 32.6534C270.346 24.4316 264.552 17.8147 256.848 14.0261C249.144 10.2376 240.455 9.72464 232.372 12.5907C224.289 15.4568 217.793 21.3491 214.07 29.1896C211.753 34.0653 210.695 39.3269 210.889 44.5837H212.276C212.077 39.5339 213.094 34.4794 215.319 29.8014C218.879 22.2997 225.099 16.6616 232.83 13.9226C236.132 12.7508 239.535 12.1719 242.929 12.1719C247.484 12.1719 252.02 13.2214 256.242 15.2968C263.613 18.9206 269.153 25.2505 271.844 33.1193C277.402 49.3606 268.94 67.1737 252.982 72.8259C246.518 75.1178 239.641 75.1507 233.256 72.9812L232.816 74.3224C236.086 75.4331 239.475 75.9931 242.878 75.9931C246.425 75.9931 249.986 75.386 253.435 74.1624C270.119 68.2467 278.965 49.6288 273.157 32.6534Z" fill="#52ADD7" stroke="#50ADD7" stroke-width="2" stroke-miterlimit="10"/>
<path d="M275.914 31.6748C272.843 22.7 266.527 15.4853 258.12 11.3485C249.718 7.21177 240.234 6.65643 231.416 9.78137C216.623 15.0241 207.486 29.4252 207.981 44.5793H208.443C207.949 29.6182 216.966 15.4006 231.569 10.2238C240.267 7.14117 249.626 7.69181 257.921 11.7721C266.212 15.8524 272.45 22.9777 275.479 31.8301C281.731 50.1091 272.21 70.153 254.25 76.5205C246.75 79.1795 238.949 79.0336 231.948 76.6381L231.818 77.0852C235.37 78.2995 239.12 78.9442 242.935 78.9442C246.74 78.9442 250.606 78.3089 254.398 76.9629C272.598 70.5153 282.249 50.1985 275.914 31.6748Z" fill="#52ADD7"/>
<path d="M231.325 10.2045C231.038 10.2045 230.77 10.021 230.668 9.72921L227.662 0.93796C227.538 0.570874 227.727 0.166136 228.088 0.0390672C228.448 -0.0880011 228.846 0.104954 228.971 0.47204L231.977 9.26329C232.102 9.63038 231.912 10.0351 231.551 10.1622C231.477 10.1951 231.399 10.2045 231.325 10.2045Z" fill="#52ADD7"/>
<path d="M240.389 36.2441C240.292 36.2441 240.205 36.1829 240.172 36.0841L233.615 16.9108C233.574 16.7885 233.638 16.652 233.759 16.6097C233.879 16.5673 234.008 16.6332 234.054 16.7555L240.611 35.9287C240.653 36.0511 240.588 36.1876 240.468 36.2299C240.44 36.2394 240.413 36.2441 240.389 36.2441Z" fill="#52ADD7"/>
<path d="M270.695 21.8901C270.491 21.8901 270.288 21.796 270.149 21.6219C269.913 21.316 269.964 20.8736 270.265 20.6288L277.293 14.9672C277.594 14.7225 278.029 14.779 278.269 15.0849C278.505 15.3908 278.454 15.8332 278.153 16.0779L271.125 21.7395C271 21.8384 270.847 21.8901 270.695 21.8901Z" fill="#52ADD7"/>
<path d="M249.007 38.8887C248.937 38.8887 248.873 38.8558 248.826 38.7993C248.748 38.6958 248.766 38.5499 248.863 38.4699L264.511 25.8665C264.613 25.7865 264.756 25.8054 264.835 25.9042C264.914 26.0077 264.895 26.1536 264.798 26.2336L249.15 38.8369C249.108 38.8699 249.058 38.8887 249.007 38.8887Z" fill="#52ADD7"/>
<path d="M279.302 69.9458C279.159 69.9458 279.02 69.9035 278.895 69.8094L271.455 64.3125C271.145 64.0819 271.076 63.6442 271.302 63.3242C271.529 63.0088 271.959 62.9382 272.273 63.1688L279.714 68.6657C280.023 68.8963 280.093 69.334 279.866 69.654C279.727 69.847 279.515 69.9458 279.302 69.9458Z" fill="#52ADD7"/>
<path d="M265.718 59.4367C265.672 59.4367 265.621 59.4225 265.584 59.3896L249.414 47.4405C249.312 47.3652 249.289 47.2193 249.363 47.111C249.437 47.0075 249.585 46.984 249.686 47.0593L265.857 59.0084C265.959 59.0837 265.982 59.2296 265.908 59.3378C265.861 59.4037 265.788 59.4367 265.718 59.4367Z" fill="#52ADD7"/>
<path d="M229.757 87.2266C229.687 87.2266 229.623 87.2171 229.553 87.1936C229.188 87.0807 228.98 86.6853 229.095 86.3135L231.764 77.4611C231.875 77.0893 232.263 76.8775 232.628 76.9952C232.994 77.1081 233.202 77.5035 233.086 77.8753L230.418 86.7277C230.325 87.0336 230.053 87.2266 229.757 87.2266Z" fill="#52ADD7"/>
<path d="M234.675 70.4254C234.652 70.4254 234.629 70.4207 234.606 70.416C234.486 70.3783 234.416 70.2465 234.453 70.1242L240.303 50.7157C240.34 50.5933 240.469 50.518 240.589 50.5603C240.71 50.598 240.779 50.7298 240.742 50.8521L234.893 70.2607C234.865 70.3595 234.777 70.4254 234.675 70.4254Z" fill="#52ADD7"/>
<path d="M198.511 44.4992C198.132 44.4992 197.817 44.1838 197.817 43.7979C197.817 43.4073 198.123 43.092 198.506 43.0873L207.694 43.0261H207.699C208.078 43.0261 208.393 43.3414 208.393 43.7273C208.393 44.118 208.088 44.4333 207.704 44.438L198.511 44.4992C198.516 44.4992 198.511 44.4992 198.511 44.4992Z" fill="#52ADD7"/>
<path d="M215.297 43.9198C215.172 43.9198 215.065 43.8163 215.065 43.6845C215.065 43.5527 215.167 43.4492 215.297 43.4492L235.393 43.3221C235.518 43.3221 235.624 43.4257 235.624 43.5575C235.624 43.6892 235.522 43.7928 235.393 43.7928L215.297 43.9198C215.301 43.9198 215.301 43.9198 215.297 43.9198Z" fill="#52ADD7"/>
<path d="M243.443 48.1458C242.8 48.1458 242.162 48.0093 241.556 47.7316C240.442 47.2187 239.586 46.2962 239.151 45.1291C238.717 43.962 238.758 42.696 239.262 41.5571C239.766 40.4229 240.673 39.5522 241.82 39.1098C242.966 38.6674 244.21 38.7098 245.329 39.2228C246.444 39.7357 247.299 40.6582 247.734 41.8253C248.168 42.9925 248.127 44.2584 247.623 45.3973C247.119 46.5315 246.212 47.4022 245.066 47.8446C244.538 48.047 243.993 48.1458 243.443 48.1458ZM243.447 40.2205C243.063 40.2205 242.684 40.2911 242.314 40.4323C240.663 41.0676 239.831 42.9501 240.455 44.6302C240.756 45.4444 241.352 46.0892 242.129 46.4468C242.906 46.8045 243.776 46.8328 244.575 46.5269C245.375 46.2209 246.009 45.6138 246.36 44.8232C246.712 44.0325 246.74 43.1478 246.439 42.3336C246.138 41.5194 245.542 40.8747 244.765 40.517C244.34 40.3193 243.896 40.2205 243.447 40.2205Z" fill="#52ADD7"/>
</svg>
